<?xml version="1.0" standalone="no"?>
<!DOCTYPE svg PUBLIC "-//W3C//DTD SVG 20010904//EN"
 "http://www.w3.org/TR/2001/REC-SVG-20010904/DTD/svg10.dtd">
<svg version="1.0" xmlns="http://www.w3.org/2000/svg"
 width="115.000000pt" height="116.000000pt" viewBox="0 0 115.000000 116.000000"
 preserveAspectRatio="xMidYMid meet">

<g transform="translate(0.000000,116.000000) scale(0.100000,-0.100000)"
fill="#000000" stroke="none">
<path d="M474 851 c-48 -22 -87 -60 -117 -116 -29 -55 -29 -154 1 -211 26 -52
94 -111 141 -124 55 -15 132 -11 176 9 51 23 118 98 133 149 35 117 -21 243
-131 293 -55 25 -148 25 -203 0z m161 -2 c55 -14 122 -70 146 -123 24 -53 24
-139 0 -191 -38 -83 -137 -142 -222 -132 -124 15 -209 108 -209 229 1 69 27
125 80 170 61 53 124 67 205 47z"/>
<path d="M548 715 c-54 -52 -98 -97 -98 -99 0 -2 18 -7 40 -11 22 -4 42 -11
45 -15 3 -5 -4 -34 -16 -64 -11 -31 -19 -61 -17 -66 2 -6 48 35 102 89 l100
100 -42 7 c-23 4 -44 10 -47 13 -2 4 7 37 20 74 14 37 21 67 17 67 -4 -1 -51
-43 -104 -95z m52 -9 c-16 -44 -12 -55 25 -62 19 -3 35 -9 35 -13 0 -4 -28
-31 -62 -61 -37 -33 -59 -47 -54 -35 15 39 19 75 8 75 -6 0 -23 5 -39 11 l-28
11 60 54 c32 29 61 52 62 50 2 -2 -1 -15 -7 -30z"/>
</g>
</svg>
