<?xml version="1.0" standalone="no"?>
<!DOCTYPE svg PUBLIC "-//W3C//DTD SVG 20010904//EN"
 "http://www.w3.org/TR/2001/REC-SVG-20010904/DTD/svg10.dtd">
<svg version="1.0" xmlns="http://www.w3.org/2000/svg"
 width="108.000000pt" height="108.000000pt" viewBox="0 0 108.000000 108.000000"
 preserveAspectRatio="xMidYMid meet">

<g transform="translate(0.000000,108.000000) scale(0.100000,-0.100000)"
fill="#000000" stroke="none">
<path d="M650 770 c0 -5 7 -10 15 -10 27 0 16 -16 -40 -61 -75 -60 -165 -113
-246 -146 -65 -26 -96 -52 -46 -38 90 26 279 138 336 199 31 33 39 33 44 -1 2
-17 5 -10 6 20 l1 47 -35 0 c-19 0 -35 -4 -35 -10z"/>
<path d="M630 445 l0 -145 -30 0 -30 0 0 100 0 100 -50 0 -50 0 0 -100 0 -100
-30 0 -30 0 0 66 0 65 -47 -3 c-45 -3 -48 -5 -51 -32 -2 -16 1 -33 7 -39 8 -8
11 -2 11 21 0 29 3 32 30 32 30 0 30 -1 30 -55 0 -54 0 -55 -30 -55 -16 0 -30
5 -30 10 0 6 -8 5 -20 -2 -11 -7 -20 -16 -20 -20 0 -5 106 -8 235 -8 150 0
235 4 235 10 0 6 -9 10 -20 10 -19 0 -20 7 -20 145 l0 145 -45 0 -45 0 0 -145z
m70 -10 l0 -135 -25 0 -25 0 0 135 0 135 25 0 25 0 0 -135z m-152 -42 l3 -93
-31 0 -30 0 0 88 c0 49 3 92 7 96 4 4 16 6 28 4 18 -3 20 -11 23 -95z"/>
</g>
</svg>
