<?xml version="1.0" standalone="no"?>
<!DOCTYPE svg PUBLIC "-//W3C//DTD SVG 20010904//EN"
 "http://www.w3.org/TR/2001/REC-SVG-20010904/DTD/svg10.dtd">
<svg version="1.0" xmlns="http://www.w3.org/2000/svg"
 width="116.000000pt" height="114.000000pt" viewBox="0 0 116.000000 114.000000"
 preserveAspectRatio="xMidYMid meet">

<g transform="translate(0.000000,114.000000) scale(0.100000,-0.100000)"
fill="#000000" stroke="none">
<path d="M650 825 c-7 -9 -13 -29 -13 -45 0 -43 20 -62 62 -58 27 2 39 10 51
31 13 24 13 30 0 55 -19 33 -78 43 -100 17z m84 -27 c16 -26 -4 -53 -40 -53
-23 0 -30 5 -32 23 -2 13 -1 30 2 38 8 20 56 14 70 -8z"/>
<path d="M462 810 c-6 -11 -12 -27 -12 -35 0 -9 -7 -18 -15 -21 -8 -4 -15 -19
-15 -34 0 -16 -4 -32 -10 -35 -5 -3 -10 -33 -10 -65 l0 -59 -42 -3 -43 -3 -3
-82 c-3 -81 -3 -83 -27 -83 -14 0 -25 -4 -25 -10 0 -6 112 -10 315 -10 203 0
315 4 315 10 0 6 -25 10 -55 10 l-54 0 -3 113 -3 112 -112 3 -113 3 0 34 c0
19 -4 35 -10 35 -5 0 -10 14 -10 30 0 17 -4 30 -10 30 -5 0 -10 11 -10 25 0
14 -4 25 -10 25 -5 0 -10 7 -10 15 0 21 -13 19 -28 -5z m28 -46 c0 -8 -4 -14
-10 -14 -5 0 -10 9 -10 21 0 11 5 17 10 14 6 -3 10 -13 10 -21z m18 -51 c3
-20 -1 -23 -32 -23 -28 0 -36 4 -36 18 0 26 10 33 40 30 17 -2 26 -10 28 -25z
m22 -183 l0 -140 -35 0 -35 0 0 85 c0 78 -2 85 -20 85 -18 0 -20 7 -20 55 l0
55 55 0 55 0 0 -140z m228 -37 l3 -103 -106 0 -105 0 0 105 0 106 103 -3 102
-3 3 -102z m-318 -29 c0 -47 -4 -73 -10 -69 -5 3 -10 14 -11 23 0 12 -3 11 -9
-5 -5 -13 -16 -23 -25 -23 -9 0 -20 10 -25 23 l-9 22 0 -22 c-1 -13 -5 -23
-11 -23 -6 0 -10 32 -10 75 l0 75 55 0 55 0 0 -76z"/>
<path d="M448 613 c7 -3 16 -2 19 1 4 3 -2 6 -13 5 -11 0 -14 -3 -6 -6z"/>
<path d="M490 520 c0 -60 4 -100 10 -100 6 0 10 40 10 100 0 60 -4 100 -10
100 -6 0 -10 -40 -10 -100z"/>
<path d="M448 573 c7 -3 16 -2 19 1 4 3 -2 6 -13 5 -11 0 -14 -3 -6 -6z"/>
<path d="M580 540 c0 -6 30 -10 69 -10 39 0 73 5 76 10 4 6 -22 10 -69 10 -44
0 -76 -4 -76 -10z"/>
<path d="M618 493 c23 -2 59 -2 80 0 20 2 1 4 -43 4 -44 0 -61 -2 -37 -4z"/>
<path d="M580 440 c0 -6 32 -10 76 -10 47 0 73 4 69 10 -3 6 -37 10 -76 10
-39 0 -69 -4 -69 -10z"/>
<path d="M368 503 c12 -2 30 -2 40 0 9 3 -1 5 -23 4 -22 0 -30 -2 -17 -4z"/>
<path d="M350 470 c0 -5 14 -10 30 -10 17 0 30 5 30 10 0 6 -13 10 -30 10 -16
0 -30 -4 -30 -10z"/>
</g>
</svg>
